<svg xmlns="http://www.w3.org/2000/svg" viewBox="0 0 934.03 162">
    <defs>
        <style>.cls-1{fill:#c36fcf;}.cls-2{fill:#6b64ac;}</style>
    </defs>
    <title>Ресурс 1</title>
    <g id="Слой_2" data-name="Слой 2">
        <g id="Слой_1-2" data-name="Слой 1">
            <path d="M378.74,46c.1.24.29.72.72.72s.62-.48.72-.72l10-27.13h6.87l-12.2,30.34a5.85,5.85,0,0,1-10.84,0l-12.2-30.34h6.87Z"/>
            <path d="M398.51,52.43V18.82h6.34V52.43Z"/>
            <path d="M423.76,52.43c-3.21,0-7.58-.43-10.7-3.94s-3.41-8.69-3.41-12.38c0-4.81.43-9.75,3.26-13.06,3.36-3.94,8.6-4.23,11-4.23H437.4v5H426.88c-3.74,0-6.91.24-8.83,3.12-1,1.49-1.87,4-1.87,9s.91,7.1,1.58,8.16c1.73,2.64,4.8,3.22,8.79,3.22h11.37v5Z"/>
            <path d="M452,52.43V23.86H438.88v-5h32.6v5H458.32V52.43Z"/>
            <path d="M503.59,22c3.5,3.36,3.84,9.22,3.84,13.64S507,45.9,503.59,49.26c-3.65,3.55-9.51,3.55-13.39,3.55s-9.7,0-13.4-3.55c-3.89-3.75-3.89-9.84-3.89-13.63,0-4.57.24-10.18,3.89-13.64s9.31-3.55,13.4-3.55S499.89,18.44,503.59,22ZM481.51,45c2,2.54,5.13,2.78,8.64,2.78s6.67-.24,8.69-2.78c1.1-1.4,2.06-3.94,2.06-9.36,0-5.81-1-8.12-2.06-9.41-2-2.45-5.28-2.74-8.69-2.74s-6.68.29-8.64,2.74c-1.3,1.63-2.07,4.27-2.07,9.41C479.44,41.1,480.4,43.59,481.51,45Z"/>
            <path d="M512.23,24.54a5.55,5.55,0,0,1,1.39-4.37,5.63,5.63,0,0,1,4-1.35h15.94c2.35,0,5.23.15,7.2,3.08,1.58,2.3,1.68,4.94,1.68,7.39A15.39,15.39,0,0,1,541,36.87c-.87,1.64-2.5,3.46-6.34,3.46h-4.32v.24l12.77,11.86h-8l-11-10.9a5,5,0,0,1-1.58-2.83v-.77c0-1.35,1-2.3,2.83-2.3h6.33a3.8,3.8,0,0,0,3.46-1.49c.67-1.06.77-3.46.77-4.61,0-2.64-.53-4-1.2-4.66a4.84,4.84,0,0,0-3.55-1H520.91a2.16,2.16,0,0,0-1.68.53,2.11,2.11,0,0,0-.67,1.87V52.43h-6.33Z"/>
            <path d="M547.46,52.43V18.82h6.33V52.43Z"/>
            <path d="M567.91,22.23c1.2-2.83,2.49-3.79,5.52-3.79s4.32,1,5.52,3.79l12.67,30.2H585l-3.46-8.5H565.31l-3.41,8.5h-6.67Zm-1,17.19h12.91l-5.47-13.68c-.2-.48-.53-1.4-1-1.4s-.77.92-1,1.4Z"/>
            <path d="M592.1,37h17.13V42H592.1Z"/>
            <path d="M614,52.43V23.86a4.74,4.74,0,0,1,1.15-3.74,5.27,5.27,0,0,1,3.8-1.3h16c1.78,0,4.61,0,6.67,2,2.31,2.21,2.55,6,2.55,8.83s-.29,7.06-2.93,9.22a8.41,8.41,0,0,1-5.14,1.63H620.37V52.43Zm18.39-17c1.39,0,3,0,4.13-1.25s1.1-3.31,1.1-4.6c0-1.49-.14-3.51-1.2-4.61s-2.88-1.16-3.94-1.16H622.29a1.87,1.87,0,0,0-1.49.44,2.05,2.05,0,0,0-.43,1.58v9.6Z"/>
            <path d="M649,52.43V18.82h6.33V52.43Z"/>
            <path d="M661.07,18.82h6.34V52.43h-6.34Zm24.15,33.61L671.39,39.51a5.91,5.91,0,0,1-2.11-4.36,5.81,5.81,0,0,1,1.63-3.75l12.72-12.58h7.83L677,32.6c-.77.72-1.58,1.35-1.58,2.5,0,1.48,1,2.35,2,3.17l15.88,14.16Z"/>
            <path d="M703,22.23c1.2-2.83,2.5-3.79,5.52-3.79s4.33,1,5.53,3.79l12.67,30.2h-6.67l-3.46-8.5H700.43L697,52.43h-6.67Zm-1,17.19H715L709.5,25.74c-.19-.48-.52-1.4-1-1.4s-.76.92-1,1.4Z"/>
            <path d="M732.5,52.43a5.11,5.11,0,0,1-3.12-.87,3.51,3.51,0,0,1-1.2-2.78v-30h6.33V45.56a1.75,1.75,0,0,0,.43,1.44,2.41,2.41,0,0,0,1.59.39H755v5Z"/>
            <path d="M784.63,22c3.5,3.36,3.84,9.22,3.84,13.64s-.39,10.27-3.84,13.63c-3.65,3.55-9.51,3.55-13.4,3.55s-9.69,0-13.39-3.55C754,45.51,754,39.42,754,35.63c0-4.57.24-10.18,3.89-13.64s9.31-3.55,13.39-3.55S780.93,18.44,784.63,22ZM762.54,45c2,2.54,5.14,2.78,8.64,2.78s6.68-.24,8.69-2.78c1.11-1.4,2.07-3.94,2.07-9.36,0-5.81-1-8.12-2.07-9.41-2-2.45-5.28-2.74-8.69-2.74s-6.67.29-8.64,2.74c-1.29,1.63-2.06,4.27-2.06,9.41C760.48,41.1,761.44,43.59,762.54,45Z"/>
            <path d="M804.88,46c.1.24.29.72.72.72s.63-.48.72-.72l10-27.13h6.87L811,49.16a5.86,5.86,0,0,1-10.85,0L788,18.82h6.87Z"/>
            <path d="M831.09,22.23c1.2-2.83,2.49-3.79,5.52-3.79s4.32,1,5.52,3.79l12.67,30.2h-6.67l-3.46-8.5H828.5l-3.41,8.5h-6.67Zm-1,17.19H843l-5.47-13.68c-.19-.48-.53-1.4-1-1.4s-.77.92-1,1.4Z"/>
            <path d="M856.24,52.43v-6.2h5.86v6.2Z"/>
            <path d="M867.85,24.54a5.56,5.56,0,0,1,1.4-4.37,5.63,5.63,0,0,1,4-1.35h15.94c2.35,0,5.23.15,7.2,3.08,1.58,2.3,1.68,4.94,1.68,7.39a15.39,15.39,0,0,1-1.44,7.58c-.87,1.64-2.5,3.46-6.34,3.46H886v.24l12.77,11.86h-8l-11-10.9a5,5,0,0,1-1.58-2.83v-.77c0-1.35,1-2.3,2.83-2.3h6.33a3.8,3.8,0,0,0,3.46-1.49c.67-1.06.77-3.46.77-4.61,0-2.64-.53-4-1.2-4.66a4.85,4.85,0,0,0-3.55-1H876.54a2.16,2.16,0,0,0-1.68.53,2.11,2.11,0,0,0-.67,1.87V52.43h-6.34Z"/>
            <path d="M924.35,45.61c1.54-1.68,1.59-4.18,1.59-5.86V18.82h6.33v21.8c0,2.83-.38,6-2.93,8.59-3.36,3.46-8.59,3.6-11.66,3.6s-8.3-.14-11.67-3.6c-2.54-2.59-2.92-5.76-2.92-8.59V18.82h6.33V39.75c0,1.88.05,4.13,1.63,5.86,1.78,1.92,4.66,2.16,6.63,2.16S922.62,47.53,924.35,45.61Z"/>
            <path class="cls-1"
                  d="M25.61,6.22,97.28,143l-4.77,9.81H90.33l-61-115.94Q15.67,10.72,0,7V4.59ZM68.39,44.5l33.93,64.17,31.74-66.62q6.67-13.89,6.68-20.84,0-10.77-10.63-14.17V4.59c-.18,0,2.36.22,7.63.68q10.48.95,16.49,1,4.76,0,20.29-1.63V7A39.28,39.28,0,0,0,160,17.26q-5.73,6.54-14.85,25.88l-42.78,89.1L36.65,6.22Q49,6.22,66.21,4.59V7q-7.9,2.17-7.9,9.81Q58.31,25.16,68.39,44.5Z"/>
            <path class="cls-2"
                  d="M204.86,6.23v143.6h-4.49q-8.72,0-25.89,1.64V149q7.08-.81,13.08-8t6-30.11V44.52q0-18.95-4.23-26.84T174.48,7.05V4.6Q192.6,6,204.86,6.23Zm19.9,143.6h-9.95V6.23c2.27,0,4,0,5.31-.13q7.77-.27,15-1A93.74,93.74,0,0,1,245.6,4.6q24.25,0,35.7,12.67,11.29,12.81,11.3,31.88,0,19.49-12.39,31.06-12.4,11.85-32.29,11.85a67.21,67.21,0,0,1-22.07-3.81V112.5q0,17.85,5,26.3,4.91,8.72,16.21,10.21v2.46q-5.73-.83-14.17-1.23Zm1.09-101.5V78A51.34,51.34,0,0,0,246,82q17.3,0,25.89-9.53t8.58-24q0-14.85-8.58-24.66T245.06,14Q235,14,230.34,17.13T225.85,48.33Zm61.85,38a50.5,50.5,0,0,0,14.85-36.51A56.14,56.14,0,0,0,287.7,11q27.39,11,27.38,37.6Q315.08,74.63,287.7,86.34Z"/>
            <rect class="cls-1" x="339.53" width="1.75" height="162"/>
            <path d="M709.88,86l-1.62-1.19a12.41,12.41,0,0,0-1.53-.92,8.34,8.34,0,0,0-1.65-.61,8.62,8.62,0,0,0-2-.21,8.43,8.43,0,0,0-3.35.68A8.9,8.9,0,0,0,697,85.58a8.63,8.63,0,0,0-1.84,2.74,8.64,8.64,0,0,0,0,6.72,8.66,8.66,0,0,0,4.6,4.59,8.19,8.19,0,0,0,3.34.69,7.9,7.9,0,0,0,2-.24,8.37,8.37,0,0,0,1.76-.64,10.25,10.25,0,0,0,1.56-1,12.94,12.94,0,0,0,1.4-1.28,1.46,1.46,0,0,1,.72-.3,1.15,1.15,0,0,1,.77.15,1.4,1.4,0,0,1,.57.45,1.17,1.17,0,0,1,.23.69,1.49,1.49,0,0,1-.47,1.08,16.3,16.3,0,0,1-1.83,1.74,9.63,9.63,0,0,1-1.92,1.2,8.91,8.91,0,0,1-2.17.71,13,13,0,0,1-2.6.24,11.14,11.14,0,0,1-4.46-.9,11.54,11.54,0,0,1-6.1-6.11,11.54,11.54,0,0,1-.5-7.48,11.29,11.29,0,0,1,1.16-2.74,10.62,10.62,0,0,1,1.8-2.32,11.5,11.5,0,0,1,2.32-1.79,11.44,11.44,0,0,1,5.78-1.58,14.86,14.86,0,0,1,2.54.19,8.32,8.32,0,0,1,2.07.62,8.73,8.73,0,0,1,1.83,1.12,15,15,0,0,1,1.79,1.67,1.44,1.44,0,0,1,.41,1,1.16,1.16,0,0,1-.17.64,1.35,1.35,0,0,1-.44.45,1.38,1.38,0,0,1-.59.2A1.08,1.08,0,0,1,709.88,86Z"/>
            <path d="M731.17,94.32a9.83,9.83,0,0,1-.58,3.42,8.5,8.5,0,0,1-1.65,2.8,7.72,7.72,0,0,1-2.55,1.89,7.6,7.6,0,0,1-3.3.7,8.33,8.33,0,0,1-3.41-.7,9,9,0,0,1-2.8-1.89,8.78,8.78,0,0,1-1.9-2.8,8.82,8.82,0,0,1,0-6.84,9,9,0,0,1,1.9-2.8,9.34,9.34,0,0,1,2.8-1.89,8.48,8.48,0,0,1,3.41-.69,7.74,7.74,0,0,1,3.3.69,8,8,0,0,1,2.55,1.89,8.71,8.71,0,0,1,1.65,2.8A9.91,9.91,0,0,1,731.17,94.32Zm-2.18,0a6.16,6.16,0,0,0-.45-2.36A6.25,6.25,0,0,0,727.28,90a5.76,5.76,0,0,0-1.87-1.3,5.85,5.85,0,0,0-4.64,0A5.76,5.76,0,0,0,718.9,90,6,6,0,0,0,717.65,92a6.26,6.26,0,0,0,0,4.71,6,6,0,0,0,1.25,1.94,5.79,5.79,0,0,0,1.87,1.31,5.74,5.74,0,0,0,4.64,0,5.79,5.79,0,0,0,1.87-1.31,6.25,6.25,0,0,0,1.26-1.94A6.15,6.15,0,0,0,729,94.32Zm2.9.85a1.42,1.42,0,0,1-.39,1,1.46,1.46,0,0,1-2,0,1.37,1.37,0,0,1-.42-1V90.06l.23-.45.38-2A2.8,2.8,0,0,1,730.2,86a1.27,1.27,0,0,1,.94-.46.67.67,0,0,1,.75.76Zm0,7a1,1,0,0,1-.2.67.81.81,0,0,1-.68.27,1.86,1.86,0,0,1-.48-.06.76.76,0,0,1-.39-.22,1.36,1.36,0,0,1-.3-.49,3.48,3.48,0,0,1-.18-.82l-.38-2.5-.23-.45V94.38a1.44,1.44,0,0,1,2.45-1,1.42,1.42,0,0,1,.39,1Z"/>
            <path d="M739.33,86.18a1.28,1.28,0,0,1,1.06-.46h11.66a1.35,1.35,0,0,1,1,.49,1.6,1.6,0,0,1,.38,1.06v14.29a1.81,1.81,0,0,1-.09.55,1.37,1.37,0,0,1-.27.49,1.33,1.33,0,0,1-.45.36,1.51,1.51,0,0,1-.61.13,1.28,1.28,0,0,1-.63-.15,1.68,1.68,0,0,1-.45-.38,1.62,1.62,0,0,1-.27-.5,1.86,1.86,0,0,1-.08-.5v-13h-8.8v6.66a15.91,15.91,0,0,1-.32,3.27,7.84,7.84,0,0,1-1,2.61,5.11,5.11,0,0,1-1.84,1.74,5.6,5.6,0,0,1-2.76.63,1.4,1.4,0,0,1-1.4-1.42,1.24,1.24,0,0,1,.28-.82,1.25,1.25,0,0,1,.75-.46,3.72,3.72,0,0,0,2.48-1.2,4.56,4.56,0,0,0,1-3v-9.3A1.7,1.7,0,0,1,739.33,86.18Z"/>
            <path d="M756.66,94.29a8.47,8.47,0,0,1,.69-3.4,9.11,9.11,0,0,1,1.9-2.81,9,9,0,0,1,2.8-1.9,8.8,8.8,0,0,1,6.83,0,8.73,8.73,0,0,1,2.8,1.9,8.91,8.91,0,0,1,1.89,2.81,8.47,8.47,0,0,1,.69,3.4,8.57,8.57,0,0,1-.69,3.42,8.87,8.87,0,0,1-4.69,4.69,8.8,8.8,0,0,1-6.83,0,8.93,8.93,0,0,1-4.7-4.69A8.57,8.57,0,0,1,756.66,94.29Zm2.9,0a6,6,0,0,0,.46,2.36,6,6,0,0,0,1.25,1.94,5.9,5.9,0,0,0,1.87,1.31,6,6,0,0,0,4.64,0,5.94,5.94,0,0,0,1.88-1.31,6.4,6.4,0,0,0,1.25-1.94,6.26,6.26,0,0,0,0-4.71A6.53,6.53,0,0,0,769.66,90a5.91,5.91,0,0,0-1.88-1.3,5.85,5.85,0,0,0-4.64,0,5.87,5.87,0,0,0-1.87,1.3A6.16,6.16,0,0,0,760,91.94,6,6,0,0,0,759.56,94.29Z"/>
            <path d="M777.27,88.89V87a1.37,1.37,0,0,1,.4-1,1.33,1.33,0,0,1,1-.42A1.43,1.43,0,0,1,780.11,87v1.87Zm14.54-1.28v14.06a1.37,1.37,0,0,1-.39,1.06,1.45,1.45,0,0,1-1,.36,1.5,1.5,0,0,1-1-.37,1.3,1.3,0,0,1-.43-1V95.91h-8.86v5.76a1.37,1.37,0,0,1-.39,1,1.39,1.39,0,0,1-1,.39,1.53,1.53,0,0,1-1-.36,1.37,1.37,0,0,1-.4-1.06V87.84l2.84-.12v5.36H789V87.57ZM789,88.89V87a1.34,1.34,0,0,1,.4-1,1.33,1.33,0,0,1,1-.42,1.36,1.36,0,0,1,1,.42,1.32,1.32,0,0,1,.42,1v1.89Z"/>
            <path d="M804.25,90.67V87a1.38,1.38,0,0,1,.41-1,1.41,1.41,0,0,1,2,0,1.32,1.32,0,0,1,.43,1v3.65ZM807.1,90v11.33a1.83,1.83,0,0,1-.45,1.27,1.42,1.42,0,0,1-1.1.51,1.08,1.08,0,0,1-1-.48,2.28,2.28,0,0,1-.31-1.27V88.8Zm10.67-4.35a1.16,1.16,0,0,1,1,.44,1.52,1.52,0,0,1,.32.93,1.39,1.39,0,0,1-.33.9,1.14,1.14,0,0,1-1,.41h-.59a3.2,3.2,0,0,0-1.85.51,4,4,0,0,0-1.23,1.38c-.28.48-.55,1-.82,1.5s-.56,1-.86,1.54a16.47,16.47,0,0,1-.95,1.45,7.77,7.77,0,0,1-1.12,1.23,4.7,4.7,0,0,1-3.25,1.23h-.38l-.38,0,0-2.72a1.5,1.5,0,0,0,.33,0H807a3.35,3.35,0,0,0,1.25-.23,3.79,3.79,0,0,0,1-.63,5.6,5.6,0,0,0,1.12-1.43c.32-.57.63-1.17.94-1.79s.64-1.22,1-1.82a6.62,6.62,0,0,1,1.29-1.59A5.39,5.39,0,0,1,815,86a4.73,4.73,0,0,1,1.94-.36h.4A2.77,2.77,0,0,1,817.77,85.65ZM812.71,92c.37.61.81,1.31,1.31,2.09l1.53,2.39,1.52,2.4,1.31,2.07a1.71,1.71,0,0,1,.27.83,1.39,1.39,0,0,1-.14.63,1.28,1.28,0,0,1-.61.63,1.5,1.5,0,0,1-.92.16,1.3,1.3,0,0,1-.62-.27,2.71,2.71,0,0,1-.57-.74l-5.27-8.44Z"/>
            <path d="M822.13,86.24a.67.67,0,0,1,.75-.75,1.27,1.27,0,0,1,.5.1,1.31,1.31,0,0,1,.44.35,2.46,2.46,0,0,1,.34.65,4.18,4.18,0,0,1,.2,1l.38,2L825,90v17.25a1.35,1.35,0,0,1-.42,1,1.41,1.41,0,0,1-2.42-1Zm.75,8.05a9.37,9.37,0,0,1,.61-3.4,8.43,8.43,0,0,1,1.7-2.81,7.82,7.82,0,0,1,5.92-2.59,8.35,8.35,0,0,1,3.39.69,8.48,8.48,0,0,1,2.74,1.9,8.9,8.9,0,0,1,1.82,2.81,8.63,8.63,0,0,1,.67,3.4,8.73,8.73,0,0,1-.67,3.42,8.85,8.85,0,0,1-1.82,2.8,8.61,8.61,0,0,1-2.74,1.89,8.35,8.35,0,0,1-3.39.69,7.59,7.59,0,0,1-3.21-.69,8.4,8.4,0,0,1-2.61-1.89,9.14,9.14,0,0,1-2.41-6.22Zm2.14,0a6.17,6.17,0,0,0,.46,2.36,6.4,6.4,0,0,0,1.25,1.94,5.94,5.94,0,0,0,1.88,1.31,6,6,0,0,0,4.64,0,5.9,5.9,0,0,0,1.87-1.31,6,6,0,0,0,1.25-1.94,6.26,6.26,0,0,0,0-4.71A6.16,6.16,0,0,0,835.12,90a5.87,5.87,0,0,0-1.87-1.3,5.85,5.85,0,0,0-4.64,0,5.91,5.91,0,0,0-1.88,1.3,6.53,6.53,0,0,0-1.25,1.94A6.19,6.19,0,0,0,825,94.29Z"/>
            <path d="M858.83,94.32a9.83,9.83,0,0,1-.59,3.42,8.65,8.65,0,0,1-1.64,2.8,7.72,7.72,0,0,1-2.55,1.89,7.6,7.6,0,0,1-3.3.7,8.29,8.29,0,0,1-3.41-.7,8.87,8.87,0,0,1-2.8-1.89,8.62,8.62,0,0,1-1.9-2.8,8.7,8.7,0,0,1,0-6.84,8.84,8.84,0,0,1,1.9-2.8,9.22,9.22,0,0,1,2.8-1.89,8.45,8.45,0,0,1,3.41-.69,7.74,7.74,0,0,1,3.3.69,8,8,0,0,1,2.55,1.89,8.87,8.87,0,0,1,1.64,2.8A9.91,9.91,0,0,1,858.83,94.32Zm-2.18,0a6,6,0,0,0-.46-2.36A6,6,0,0,0,854.94,90a5.87,5.87,0,0,0-1.87-1.3,5.87,5.87,0,0,0-4.65,0,5.87,5.87,0,0,0-1.87,1.3,6.24,6.24,0,0,0-1.71,4.3,6.15,6.15,0,0,0,.46,2.35,6.22,6.22,0,0,0,1.25,1.94,5.9,5.9,0,0,0,1.87,1.31,5.76,5.76,0,0,0,4.65,0,5.9,5.9,0,0,0,1.87-1.31,6,6,0,0,0,1.25-1.94A6,6,0,0,0,856.65,94.32Zm2.9.85a1.39,1.39,0,0,1-.4,1,1.36,1.36,0,0,1-1,.41,1.39,1.39,0,0,1-1-.41,1.38,1.38,0,0,1-.43-1V90.06l.24-.45.38-2a2.8,2.8,0,0,1,.54-1.66,1.25,1.25,0,0,1,.93-.46.67.67,0,0,1,.76.76Zm0,7a1,1,0,0,1-.2.67.81.81,0,0,1-.68.27,1.86,1.86,0,0,1-.48-.06.84.84,0,0,1-.4-.22,1.51,1.51,0,0,1-.29-.49,2.71,2.71,0,0,1-.18-.82l-.38-2.5-.24-.45V94.38a1.38,1.38,0,0,1,.43-1,1.35,1.35,0,0,1,1-.41,1.32,1.32,0,0,1,1,.41,1.39,1.39,0,0,1,.4,1Z"/>
            <path d="M877.71,87.79a1.45,1.45,0,0,1,.45,1,1.32,1.32,0,0,1-.15.62,1.39,1.39,0,0,1-.41.46,1.28,1.28,0,0,1-.57.22,1.13,1.13,0,0,1-.65-.1,9.8,9.8,0,0,0-2-1.12,7.17,7.17,0,0,0-2.31-.55,5.91,5.91,0,0,0-2.41.34,6,6,0,0,0-2,1.21,5.75,5.75,0,0,0-1.39,1.92,5.9,5.9,0,0,0-.53,2.5,6,6,0,0,0,.5,2.43,6,6,0,0,0,5.86,3.55,6.18,6.18,0,0,0,2.14-.46,5.79,5.79,0,0,0,1.85-1.18,1.44,1.44,0,0,1,.59-.21,1.26,1.26,0,0,1,.64,0,1.16,1.16,0,0,1,.66.44,1.25,1.25,0,0,1,.27.82,1.71,1.71,0,0,1-.55,1.15,5.75,5.75,0,0,1-1.49,1.09,9.86,9.86,0,0,1-2.11.81,9.58,9.58,0,0,1-2.45.32,8.41,8.41,0,0,1-3.42-.7,8.87,8.87,0,0,1-2.8-1.89,8.76,8.76,0,0,1-1.89-2.8,8.82,8.82,0,0,1,0-6.84,9,9,0,0,1,1.89-2.8,9.22,9.22,0,0,1,2.8-1.89,8.57,8.57,0,0,1,3.42-.69,10.78,10.78,0,0,1,1.68.14,10.44,10.44,0,0,1,1.67.41,8.11,8.11,0,0,1,1.52.71A5.82,5.82,0,0,1,877.71,87.79Z"/>
            <path d="M879.53,94.29a8.47,8.47,0,0,1,.69-3.4,8.94,8.94,0,0,1,1.9-2.81,8.84,8.84,0,0,1,2.8-1.9,8.8,8.8,0,0,1,6.83,0,8.73,8.73,0,0,1,2.8,1.9,8.91,8.91,0,0,1,1.89,2.81,8.47,8.47,0,0,1,.69,3.4,8.57,8.57,0,0,1-.69,3.42,8.87,8.87,0,0,1-4.69,4.69,8.8,8.8,0,0,1-6.83,0,8.93,8.93,0,0,1-4.7-4.69A8.57,8.57,0,0,1,879.53,94.29Zm2.9,0a6,6,0,0,0,.46,2.36,6,6,0,0,0,1.25,1.94A5.9,5.9,0,0,0,886,99.9a6,6,0,0,0,4.64,0,5.94,5.94,0,0,0,1.88-1.31,6.4,6.4,0,0,0,1.25-1.94,6.26,6.26,0,0,0,0-4.71A6.53,6.53,0,0,0,892.53,90a5.91,5.91,0,0,0-1.88-1.3,5.85,5.85,0,0,0-4.64,0,5.87,5.87,0,0,0-1.87,1.3,6.16,6.16,0,0,0-1.25,1.94A6,6,0,0,0,882.43,94.29Z"/>
            <path d="M913,86.91a1.49,1.49,0,0,1-.1.55,2,2,0,0,1-.28.46,1.39,1.39,0,0,1-.41.31,1,1,0,0,1-.48.12h-4.7l0,13.5a.94.94,0,0,1-.12.44,1.45,1.45,0,0,1-.3.4,1.55,1.55,0,0,1-.43.29,1.35,1.35,0,0,1-.52.11,1.5,1.5,0,0,1-.55-.11,1.67,1.67,0,0,1-.46-.28,1.3,1.3,0,0,1-.31-.39,1,1,0,0,1-.12-.46l0-13.5h-4.64a1.07,1.07,0,0,1-.49-.12,1.35,1.35,0,0,1-.4-.31,2.11,2.11,0,0,1-.28-.45,1.4,1.4,0,0,1-.11-.53,1.47,1.47,0,0,1,.1-.48,1.68,1.68,0,0,1,.27-.45,2,2,0,0,1,.41-.34,1,1,0,0,1,.5-.13h12.15a1.29,1.29,0,0,1,.5.11,1.37,1.37,0,0,1,.42.29,1.3,1.3,0,0,1,.29.43A1.4,1.4,0,0,1,913,86.91Z"/>
            <path d="M929.64,97.28a5.18,5.18,0,0,1-2,4.21,6.87,6.87,0,0,1-2.21,1.12,9,9,0,0,1-2.68.39h-5.1a1.17,1.17,0,0,1-.61-.15,1.24,1.24,0,0,1-.41-.41,1.59,1.59,0,0,1-.23-.57,3,3,0,0,1-.08-.65V87a1.19,1.19,0,0,1,.11-.47,1.31,1.31,0,0,1,.3-.41,1.29,1.29,0,0,1,.45-.29,1.42,1.42,0,0,1,.55-.11,1.32,1.32,0,0,1,1,.41,1.24,1.24,0,0,1,.39.87v4.59h3.62a9,9,0,0,1,2.68.39,6.87,6.87,0,0,1,2.21,1.12,5.46,5.46,0,0,1,1.48,1.8A5.29,5.29,0,0,1,929.64,97.28Zm-2.75,0a2.73,2.73,0,0,0-.35-1.39,2.93,2.93,0,0,0-.92-1,4.4,4.4,0,0,0-1.37-.61,6.42,6.42,0,0,0-1.67-.21h-3.5v6.36h3.5a6.88,6.88,0,0,0,1.67-.2,4.37,4.37,0,0,0,1.37-.59,2.77,2.77,0,0,0,1.27-2.36Zm4.3-10.37a1.42,1.42,0,0,1,.39-1,1.44,1.44,0,0,1,2.45,1v14.76a1.44,1.44,0,0,1-2.45,1,1.44,1.44,0,0,1-.39-1Z"/>
        </g>
    </g>
</svg>