<svg xmlns="http://www.w3.org/2000/svg" viewBox="0 0 315.08 148.23">
    <defs>
        <style>.cls-1{fill:#c36fcf;}.cls-2{fill:#6b64ac;}</style>
    </defs>
    <title>Ресурс 2</title>
    <g id="Слой_2" data-name="Слой 2">
        <g id="Слой_1-2" data-name="Слой 1">
            <path fill="#c36fcf"
                  d="M25.61,1.63,97.28,138.42l-4.77,9.81H90.33l-61-115.94Q15.67,6.13,0,2.45V0ZM68.39,39.92l33.93,64.17,31.74-66.62q6.67-13.9,6.68-20.85,0-10.76-10.63-14.17V0q-.27,0,7.63.68,10.48,1,16.49.95Q159,1.63,174.52,0V2.45A39.39,39.39,0,0,0,160,12.67q-5.73,6.54-14.85,25.89l-42.78,89.1L36.65,1.63Q49,1.63,66.21,0V2.45q-7.9,2.19-7.9,9.81Q58.31,20.57,68.39,39.92Z"/>
            <path fill="#6b64ac"
                  d="M204.86,1.65V145.24h-4.49q-8.72,0-25.89,1.64v-2.45q7.08-.83,13.08-8t6-30.11V39.93q0-18.93-4.23-26.84T174.48,2.46V0Q192.6,1.38,204.86,1.65Zm19.9,143.59h-9.95V1.65c2.27,0,4,0,5.31-.14q7.77-.27,15-.95A91.29,91.29,0,0,1,245.6,0q24.25,0,35.7,12.67,11.29,12.81,11.3,31.88,0,19.48-12.39,31.07-12.4,11.85-32.29,11.85a67,67,0,0,1-22.07-3.82v24.25q0,17.85,5,26.3,4.91,8.72,16.21,10.22v2.45c-3.82-.55-8.54-.95-14.17-1.23Zm1.09-101.49v29.7a51.52,51.52,0,0,0,20.16,4q17.3,0,25.89-9.54t8.58-24q0-14.85-8.58-24.66T245.06,9.41q-10.09,0-14.72,3.14T225.85,43.75Zm61.85,38a50.52,50.52,0,0,0,14.85-36.52A56.12,56.12,0,0,0,287.7,6.42q27.39,11,27.38,37.6Q315.08,70,287.7,81.76Z"/>
        </g>
    </g>
</svg>